<svg width="170" height="159" viewBox="0 0 170 159" fill="none" xmlns="http://www.w3.org/2000/svg">
<g opacity="0.5">
<path fill-rule="evenodd" clip-rule="evenodd" d="M54.9726 0.0318695C46.5484 0.125869 38.1283 0.436881 29.7207 0.968881C21.7254 1.47588 13.0503 1.09088 5.18524 2.64088C2.95194 3.08088 -0.0649625 5.11587 2.90464 7.35487C4.99194 8.92887 12.6284 7.11886 15.1209 6.96586C24.2999 6.40086 33.4836 5.72586 42.6756 5.40086C51.3776 5.09286 60.0786 4.98487 68.7856 4.89787C70.1146 4.88487 72.3206 4.45886 73.6446 4.84486C75.5466 5.39886 75.0956 5.54988 75.2376 7.96388C75.4956 12.3379 75.4246 16.7279 75.3376 21.1059C75.2536 25.3429 75.0966 29.5789 75.1126 33.8179C75.1226 36.8419 74.1566 42.8509 75.6736 45.4779C77.8576 49.2579 80.1236 45.1519 80.2866 42.6399C80.5996 37.8349 80.4596 32.9719 80.4606 28.1609C80.4616 23.6459 80.4946 19.1299 80.3356 14.6169C80.2196 11.3569 80.6856 5.66588 78.9296 2.70188C77.1406 -0.317117 72.8336 0.333859 69.6916 0.189859C64.7896 -0.035141 59.8786 -0.0191305 54.9726 0.0318695Z" fill="#122640" fill-opacity="0.8"/>
<path fill-rule="evenodd" clip-rule="evenodd" d="M1.37325 5.47987C1.38255 13.9649 0.401049 22.3919 0.126049 30.8669C-5.1111e-05 34.7629 -0.255949 39.0409 0.729751 42.8659C1.72475 46.7279 4.88485 47.5649 5.24875 43.2529C5.98595 34.5229 5.80515 25.4699 6.37915 16.6699C6.58175 13.5619 7.90035 7.86788 6.66935 4.95888C5.58535 2.39588 1.36865 1.90387 1.37325 5.47987Z" fill="#122640" fill-opacity="0.8"/>
<path fill-rule="evenodd" clip-rule="evenodd" d="M80.3696 42.8779C65.7396 44.8139 50.4451 44.1079 35.7108 44.4129C28.6417 44.5589 21.5741 44.5679 14.5041 44.6419C12.0367 44.6669 5.77073 43.7289 3.63613 45.1159C0.238135 47.3239 3.92493 49.0279 6.17453 49.0769C20.1266 49.3819 34.2341 48.7409 48.1835 48.2829C54.4509 48.0769 60.7386 47.9769 66.9896 47.4439C70.8376 47.1159 75.0426 46.7979 78.7796 45.7639C79.5756 45.5439 81.3096 45.5899 81.4876 44.5039C81.5976 43.8319 81.3986 42.7359 80.3696 42.8779Z" fill="#122640" fill-opacity="0.8"/>
<path fill-rule="evenodd" clip-rule="evenodd" d="M19.534 55.2099C15.4679 55.2339 3.21495 53.3449 1.53095 57.3099C-0.713947 62.5979 8.04365 61.3639 10.399 61.3029C15.7484 61.1659 21.0941 61.1509 26.4449 61.1539C31.6951 61.1559 36.9448 61.1219 42.1941 60.9969C43.7148 60.9609 47.2546 61.5919 48.1295 59.7609C48.7944 58.3689 48.2691 57.2709 47.0428 56.5339C44.0922 54.7609 36.4268 55.7888 32.9724 55.6298C28.4997 55.4238 24.0121 55.2099 19.534 55.2099Z" fill="#122640" fill-opacity="0.8"/>
<path fill-rule="evenodd" clip-rule="evenodd" d="M69.0007 56.1889C66.6767 56.3269 61.9767 55.3688 59.8947 56.4328C57.5287 57.6418 58.3627 59.5339 60.4047 60.3659C61.8197 60.9419 67.6227 60.6399 69.0007 59.9729C70.4367 59.2769 72.0607 56.0009 69.0007 56.1889Z" fill="#122640" fill-opacity="0.8"/>
<path fill-rule="evenodd" clip-rule="evenodd" d="M94.4766 6.31286C91.9946 6.99386 92.7476 21.0839 92.6836 23.3169C92.5086 29.4369 91.8206 37.1339 93.8536 43.0279C95.1506 46.7849 97.6416 46.2748 97.2166 42.3199C96.8446 38.8479 96.2046 35.4159 95.9276 31.9219C95.3026 24.0149 94.4506 15.5809 95.0416 7.66687C95.2936 8.12687 97.6476 12.3919 98.2016 12.0729C98.0346 12.1729 95.4866 6.04686 94.4766 6.31286Z" fill="#122640" fill-opacity="0.8"/>
<path fill-rule="evenodd" clip-rule="evenodd" d="M122.394 1.12285C117.371 1.19785 112.349 1.28686 107.328 1.42586C103.335 1.53686 97.0616 0.880841 93.4006 2.56084C89.0406 4.55984 91.1086 9.01485 95.2036 9.10885C98.8266 9.19285 102.69 8.37584 106.345 8.25084C116.218 7.91284 126.109 7.84085 135.986 7.75585C144.92 7.67885 154.233 8.63184 163.088 7.28984C164.401 18.9528 160.849 30.6648 162.057 42.4618C162.244 44.2928 162.16 46.8799 164.492 47.2969C167.435 47.8239 167.556 44.9089 167.667 42.8219C167.986 36.8629 167.813 30.8988 168.25 24.9318C168.654 19.4018 169.45 13.7508 168.777 8.21184C167.95 1.39684 164.684 1.94284 158.911 1.65984C146.718 1.06184 134.601 0.943853 122.394 1.12285Z" fill="#122640" fill-opacity="0.8"/>
<path fill-rule="evenodd" clip-rule="evenodd" d="M105.562 42.5359C103.002 42.6009 98.7517 41.8119 97.1117 44.2659C95.4057 46.8199 97.4297 49.0469 99.9107 49.5709C102.848 50.1909 106.677 49.3409 109.725 49.3319C112.899 49.3219 116.074 49.3579 119.248 49.3699C132.856 49.4229 146.522 49.6289 160.121 49.0669C162.02 48.9879 167.41 49.6249 168.724 47.8029C169.891 46.1879 169.075 44.7389 167.538 43.9159C165.018 42.5649 159.842 43.0789 157.039 42.9719C153.577 42.8399 150.11 42.7969 146.647 42.7429C132.975 42.5319 119.232 42.1979 105.562 42.5359Z" fill="#122640" fill-opacity="0.8"/>
<path fill-rule="evenodd" clip-rule="evenodd" d="M117.073 54.3399C111.981 54.4269 106.547 54.2039 101.505 54.9759C97.0716 55.6549 96.5256 59.9409 101.298 60.4419C105.684 60.9029 111.001 60.0419 115.408 59.7589C116.973 59.6579 118.793 59.8009 119.543 58.0709C120.326 56.2629 118.829 54.5289 117.073 54.3399Z" fill="#122640" fill-opacity="0.8"/>
<path fill-rule="evenodd" clip-rule="evenodd" d="M155.572 54.7899C152.854 54.8579 144.915 53.6889 143.569 56.7939C141.327 61.9619 152.075 59.9989 154.137 59.9229C156.736 59.8269 166.864 61.3449 166.866 57.2079C166.868 53.1509 158.061 54.7289 155.572 54.7899Z" fill="#122640" fill-opacity="0.8"/>
<path fill-rule="evenodd" clip-rule="evenodd" d="M0.933698 80.4738C0.940198 89.8758 0.355097 99.3668 1.2128 108.746C1.5675 112.625 1.5067 120.056 3.7535 123.344C5.3484 125.678 7.5604 125.515 8.4316 122.712C9.0139 120.838 8.0825 117.091 7.9786 115.086C7.8785 113.163 7.7616 111.24 7.6726 109.315C7.444 104.358 7.4621 99.4088 7.5303 94.4488C7.5887 90.1938 8.6129 84.5648 7.6471 80.4738C6.7467 76.6608 0.933698 75.7688 0.933698 80.4738Z" fill="#122640"/>
<path fill-rule="evenodd" clip-rule="evenodd" d="M95.4306 72.2019C79.1176 72.6109 62.7676 72.2459 46.4693 73.0529C38.4313 73.4509 30.4248 74.3259 22.4271 75.1969C18.4978 75.6259 14.5708 76.0679 10.6484 76.5509C9.46483 76.6969 -0.370772 77.0779 3.32863 80.8179C4.94393 82.4519 10.0842 80.7459 12.1182 80.5049C16.0563 80.0399 20.0023 79.6349 23.9459 79.2179C31.4503 78.4239 38.964 77.6719 46.5004 77.2549C64.2496 76.2709 82.0726 76.5659 99.8396 75.9109C104.646 75.7339 109.437 75.6069 114.245 75.7959C115.508 75.8449 124.785 76.3169 120.757 72.8899C118.852 71.2699 111.671 72.1059 109.291 72.0569C104.671 71.9619 100.049 72.0859 95.4306 72.2019Z" fill="#122640"/>
<path fill-rule="evenodd" clip-rule="evenodd" d="M117.669 88.0429C117.589 83.6989 117.508 79.3549 117.31 75.0139C117.102 70.4429 123.329 69.7509 125.175 73.4509C126.505 76.1149 126.271 80.6469 126.07 84.5319C125.99 86.0969 125.914 87.5579 125.949 88.7479C126.028 91.4759 126.229 94.2979 126.432 97.1559C126.944 104.35 127.473 111.781 126.128 118.572C125.474 121.872 122.691 123.606 120.838 121.808C120.835 121.811 120.833 121.815 120.83 121.819C120.133 122.846 117.964 122.844 116.366 122.842C115.926 122.842 115.529 122.841 115.219 122.862C110.842 123.16 106.546 123.662 102.207 124.312C93.5626 125.608 84.9936 126.404 76.2566 126.62C70.3276 126.767 64.3906 126.816 58.4526 126.866C47.0806 126.96 35.7032 127.054 24.3678 127.832C20.5461 128.095 16.7823 128.545 13.0231 129.264C12.7032 129.325 12.3478 129.404 11.9696 129.489C9.17452 130.11 5.12812 131.01 4.85162 127.104C4.52302 122.468 14.5711 121.86 19.7419 121.548C20.5313 121.5 21.2071 121.459 21.7149 121.412C37.4155 119.952 53.3624 120.178 69.1296 120.402C69.8936 120.412 70.6576 120.423 71.4206 120.434C72.6506 120.451 73.8806 120.471 75.1106 120.491C81.8616 120.603 88.6046 120.714 95.3526 120.301C98.4236 120.113 101.536 120.016 104.653 119.92C109.626 119.766 114.613 119.611 119.477 119.084C118.743 116.24 118.615 112.884 118.494 109.721C118.447 108.489 118.401 107.287 118.321 106.155C117.894 100.126 117.781 94.0849 117.669 88.0429Z" fill="#122640"/>
<path fill-rule="evenodd" clip-rule="evenodd" d="M130.872 78.3629C128.668 78.6619 126.83 80.5489 127.814 82.9409C129.053 85.9529 132.744 84.7759 135.182 84.5849C142.932 83.9779 151.024 85.1908 158.681 84.2758C160.772 84.0258 163.805 82.8869 161.928 80.0769C160.517 77.9659 155.375 78.3359 153.189 78.1339C145.714 77.4419 138.337 77.6269 130.872 78.3629Z" fill="#122640" fill-opacity="0.4"/>
<path fill-rule="evenodd" clip-rule="evenodd" d="M143.952 91.5039C140.947 91.7059 133.95 91.5469 132.683 94.9669C130.411 101.102 139.31 98.9399 142.02 98.5909C145.167 98.1859 152.587 99.2709 154.263 96.2189C157.26 90.7609 146.588 91.3219 143.952 91.5039Z" fill="#122640" fill-opacity="0.4"/>
<path fill-rule="evenodd" clip-rule="evenodd" d="M136.223 104.968C134.797 106.394 134.795 108.941 136.223 110.368C137.971 112.115 141.781 111.752 144.078 111.879C147.282 112.058 156.485 113.753 158.076 109.98C160.223 104.889 151.889 104.996 149.148 104.707C145.98 104.374 138.849 102.341 136.223 104.968Z" fill="#122640" fill-opacity="0.4"/>
<path fill-rule="evenodd" clip-rule="evenodd" d="M23.901 17.8288C23.901 23.3018 32.449 23.3018 32.449 17.8288C32.449 12.3848 23.901 12.3018 23.901 17.8288Z" fill="#122640" fill-opacity="0.8"/>
<path fill-rule="evenodd" clip-rule="evenodd" d="M40.1147 17.8909C40.1147 24.1479 49.851 24.1349 49.851 17.8909C49.851 11.6559 40.1147 11.5919 40.1147 17.8909Z" fill="#122640" fill-opacity="0.8"/>
<path fill-rule="evenodd" clip-rule="evenodd" d="M30.3061 26.2099C25.5733 27.5169 29.9333 31.5279 32.1309 32.4439C35.6235 33.8999 40.3901 34.9739 43.8836 32.7899C45.2736 31.9209 46.4021 30.7669 45.3835 29.0809C44.2981 27.2849 42.8121 28.0839 41.1597 28.2489C39.0664 28.4599 37.3746 28.4269 35.3532 27.7559C33.8445 27.2549 31.9515 25.7569 30.3061 26.2099Z" fill="#122640" fill-opacity="0.8"/>
<path fill-rule="evenodd" clip-rule="evenodd" d="M116.154 18.1749C116.154 21.8769 121.902 21.8769 121.902 18.1749C121.902 14.4729 116.154 14.4729 116.154 18.1749Z" fill="#122640" fill-opacity="0.8"/>
<path fill-rule="evenodd" clip-rule="evenodd" d="M128.866 18.7319C128.866 22.8449 135.252 22.8459 135.252 18.7319C135.252 14.6189 128.866 14.6189 128.866 18.7319Z" fill="#122640" fill-opacity="0.8"/>
<path fill-rule="evenodd" clip-rule="evenodd" d="M128.393 27.6579C125.039 28.0909 115.337 29.0739 114.794 33.2089C113.957 39.5879 124.587 34.4249 127.013 33.9239C130.104 33.2859 132.863 33.4529 135.948 33.5769C137.642 33.6439 139.895 33.9189 139.717 31.3389C139.426 27.1019 131.325 27.2829 128.393 27.6579Z" fill="#122640" fill-opacity="0.8"/>
<path fill-rule="evenodd" clip-rule="evenodd" d="M44.0552 86.4838C41.6239 87.1328 38.4433 91.3359 40.1161 93.9089C42.859 98.1279 44.0686 91.6498 45.2166 91.0258C47.3052 89.8918 49.0009 94.0378 51.1836 91.8628C54.628 88.4308 46.2236 85.9038 44.0552 86.4838Z" fill="#122640"/>
<path fill-rule="evenodd" clip-rule="evenodd" d="M71.9136 83.3659C69.0306 83.3919 62.9436 87.4739 62.5126 90.4879C62.2566 92.2789 63.4436 93.9999 65.3746 94.0239C68.0036 94.0559 68.8386 90.6379 71.1176 89.9229C73.5756 89.1519 73.2106 90.9279 75.3336 91.8479C76.8876 92.5219 78.8306 92.2399 79.3696 90.3299C80.3886 86.7269 74.8766 83.3089 71.9136 83.3659Z" fill="#122640"/>
<path fill-rule="evenodd" clip-rule="evenodd" d="M49.8432 100.624C45.2314 103.326 52.8197 109.119 55.4504 109.844C59.4216 110.937 67.4146 108.896 68.3556 104.045C68.7306 102.114 67.5226 100.365 65.3916 100.711C63.6376 100.996 62.5126 103.197 60.8876 103.985C58.6936 105.048 56.7436 104.976 54.8801 103.375C53.3617 102.07 52.5485 99.0459 49.8432 100.624Z" fill="#122640"/>
<path fill-rule="evenodd" clip-rule="evenodd" d="M53.1858 140.555C49.0654 141.434 44.877 140.844 40.7367 141.671C36.5149 142.513 33.9918 144.108 30.0694 142.501C29.8849 142.423 29.7008 142.346 29.5168 142.268C26.4809 140.96 23.299 140.573 20.1212 142.657C18.2407 143.89 12.532 148.156 13.22 150.759C14.7111 156.402 21.1347 147.553 22.7727 146.691C25.8962 145.046 28.0378 147.147 31.2535 147.74C35.1054 148.45 38.2048 146.415 41.8332 145.604C46.0769 144.656 50.8509 144.326 55.1683 143.818C56.8736 143.618 63.3346 144.967 63.9176 142.844C64.9196 139.198 54.8052 140.212 53.1858 140.555Z" fill="#122640" fill-opacity="0.4"/>
<path fill-rule="evenodd" clip-rule="evenodd" d="M82.9126 151.92C82.9666 151.96 83.1826 152.124 82.9126 151.92V151.92ZM94.4526 140.335C97.9796 139.977 109.266 137.457 111.583 141.102C113.093 143.476 110.697 152.238 108.413 153.372C106.586 154.277 102.333 153.276 100.329 153.205C96.5996 153.074 92.8636 153.016 89.1386 152.783C87.8896 152.705 83.8706 152.935 82.8916 151.829C81.7356 150.524 81.7866 143.565 81.5146 141.839C84.7576 142.889 91.0616 140.679 94.4526 140.335ZM101.985 136.761C97.4676 136.957 92.9506 137.296 88.4666 137.902C85.9676 138.24 83.4346 139.138 81.1266 139.564C80.3826 139.701 79.1746 139.32 78.2626 139.761C75.5956 141.049 77.9306 149.759 78.5736 152.085C79.5616 155.66 82.0466 156.239 85.5296 156.575C90.1166 157.02 94.7976 156.88 99.3996 156.824C103.835 156.769 109.816 157.752 112.305 153.302C113.914 150.424 115.639 143.723 114.264 140.516C112.455 136.296 105.7 136.605 101.985 136.761Z" fill="#122640" fill-opacity="0.4"/>
<path fill-rule="evenodd" clip-rule="evenodd" d="M152.575 154.314C152.333 154.624 152.333 154.624 152.575 154.314V154.314ZM153.565 153.121C153.143 153.6 153.49 153.234 153.565 153.121V153.121ZM142.791 152.793C144.783 152.418 146.775 152.047 148.768 151.683C146.881 154.326 144.893 153.234 141.667 153.004C142.042 152.933 142.417 152.863 142.791 152.793ZM133.291 151.857C133.795 151.689 134.3 151.52 134.805 151.351C134.789 151.735 134.872 152.095 135.052 152.43C134.188 152.337 133.325 152.236 132.462 152.13C132.738 152.039 133.015 151.948 133.291 151.857ZM128.888 148.606C128.86 147.913 129.902 148.389 130.5 148.342C129.348 149.357 128.81 149.445 128.888 148.606ZM144.633 140.742C144.785 140.549 144.986 140.558 145.236 140.771C144.963 140.863 143.913 141.308 144.633 140.742ZM154.844 139.541C154.871 139.541 155.438 140.306 154.844 139.541V139.541ZM154.558 139.29C154.706 139.404 154.706 139.404 154.558 139.29V139.29ZM153.283 139.142C155.213 141.944 155.371 139.494 153.283 139.142V139.142ZM128.755 138.975C128.331 139.327 128.476 138.985 128.755 138.975V138.975ZM136.739 133.758C133.195 133.965 126.688 133.757 123.728 135.645C119.865 138.11 121.898 146.596 122.244 150.316C122.754 155.814 125.342 157.38 130.52 157.957C136.7 158.646 143.049 158.774 149.261 158.611C154.855 158.464 158.041 156.54 159.066 150.65C159.38 148.848 160.176 146.06 160.151 144.333C160.134 143.136 159.537 142.59 159.312 141.572C158.027 135.775 155.878 135.088 149.937 134.835C145.564 134.649 141.03 133.534 136.739 133.758Z" fill="#122640" fill-opacity="0.8"/>
</g>
</svg>
