<svg width="114" height="114" viewBox="0 0 114 114" fill="none" xmlns="http://www.w3.org/2000/svg">
<g opacity="0.5">
<path fill-rule="evenodd" clip-rule="evenodd" d="M2.46554 9.01971C2.46254 14.6977 2.17556 20.4937 3.22256 26.1037C3.53956 27.8027 3.78954 31.0557 5.58054 31.9367C7.38054 32.8217 9.12554 31.8277 9.57254 29.9827C10.0945 27.8367 8.95056 24.6237 8.83456 22.3707C8.67556 19.2917 8.66454 16.2097 8.66354 13.1277C8.66254 10.9017 9.39457 7.32071 6.76657 6.17571C4.81357 5.32371 2.46554 6.90771 2.46554 9.01971Z" fill="#8873EF" fill-opacity="0.8"/>
<path fill-rule="evenodd" clip-rule="evenodd" d="M92.2325 0.0386869C73.4205 1.92769 54.3365 2.31971 35.4555 3.30471C26.7285 3.75971 16.1805 3.17869 7.9585 6.55669C6.4315 7.18469 0.963527 10.6767 5.40253 12.0987C6.78653 12.5417 8.19249 11.0507 9.32849 10.5517C11.2205 9.72069 13.4115 9.46369 15.4295 9.13869C32.5855 6.38369 50.5305 6.8637 67.8635 5.5757C72.3045 5.2457 76.7485 4.90669 81.1805 4.47069C84.3465 4.15869 91.0015 1.87669 93.9235 3.04369C98.9175 5.03869 98.8005 17.9987 98.8985 22.4557C98.9505 24.7607 96.7125 33.0347 101.161 32.1957C104.72 31.5247 103.432 22.9287 103.154 20.5777C102.426 14.4137 101.185 -0.868313 92.2325 0.0386869Z" fill="#8873EF" fill-opacity="0.8"/>
<path fill-rule="evenodd" clip-rule="evenodd" d="M99.1705 31.8977C82.8295 33.3727 66.1125 31.9247 49.7035 32.5057C41.1035 32.8097 32.5116 33.2947 23.9095 33.5787C20.1895 33.7017 16.4655 33.7067 12.7435 33.7337C10.9635 33.7457 2.86254 34.8247 7.87354 38.3537C10.0925 39.9167 17.1645 38.6577 19.7105 38.6277C23.5355 38.5827 27.3575 38.4237 31.1795 38.2737C40.0315 37.9277 48.8785 37.4477 57.7355 37.2087C66.2075 36.9787 74.6845 36.9297 83.1565 36.7007C87.3715 36.5857 91.6445 36.4567 95.8225 35.8417C96.7655 35.7027 99.8275 35.5917 100.483 34.5407C101.102 33.5467 100.667 31.7527 99.1705 31.8977Z" fill="#8873EF"/>
<path fill-rule="evenodd" clip-rule="evenodd" d="M18.8584 19.6287C18.7704 19.8367 18.7704 19.8367 18.8584 19.6287V19.6287ZM25.9344 17.4777C26.1924 17.5867 26.1924 17.5867 25.9344 17.4777V17.4777ZM25.6034 17.4177C29.4164 21.3047 23.5525 25.9447 19.9805 22.1517C16.1885 18.1247 23.1484 17.4307 25.6034 17.4177ZM21.5585 11.5377C8.42346 13.8747 13.0735 31.3807 25.3425 28.8507C30.7285 27.7407 33.8085 22.3147 31.9545 17.1027C31.2305 15.0657 29.6514 12.8307 27.4534 12.1897C26.3574 11.8697 25.3874 12.3727 24.3434 12.2547C23.3474 12.1427 22.7945 11.3147 21.5585 11.5377Z" fill="#8873EF" fill-opacity="0.8"/>
<path fill-rule="evenodd" clip-rule="evenodd" d="M71.8295 16.4647C63.9095 16.4897 55.9865 16.8257 48.0665 16.9767C45.6375 17.0217 39.3935 15.9347 39.3845 19.7647C39.3735 23.8567 46.3285 22.3457 48.6425 22.2907C56.4985 22.1027 64.3745 21.7587 72.1985 21.0107C74.1755 20.8217 81.0175 21.1477 81.0105 18.4597C81.0025 15.6117 73.4255 16.4647 71.8295 16.4647Z" fill="#8873EF" fill-opacity="0.8"/>
<path fill-rule="evenodd" clip-rule="evenodd" d="M90.7485 43.1727C71.1585 43.6987 51.5975 43.8817 32.0235 44.8847C24.7015 45.2597 17.3895 45.5387 10.0575 45.5387C8.64548 45.5387 5.80152 44.9917 4.47252 45.8807C0.865522 48.2927 4.97247 50.3637 7.32347 50.4937C23.4045 51.3857 39.7175 49.1647 55.7885 48.6637C65.1975 48.3707 74.6075 48.2837 84.0105 47.8047C86.5755 47.6747 89.1415 47.5227 91.7025 47.3237C93.1755 47.2097 97.0705 47.5227 98.2605 46.6607C103.458 42.8987 92.5005 43.1257 90.7485 43.1727Z" fill="#8873EF"/>
<path fill-rule="evenodd" clip-rule="evenodd" d="M0.865492 52.7517C0.680492 57.8307 0.661491 62.8217 1.32649 67.8727C1.58749 69.8597 1.70749 72.1157 4.03749 72.6207C6.15349 73.0787 7.22644 71.4787 7.66444 69.7047C8.73444 65.3717 7.79347 59.1357 7.78047 54.6347C7.77447 52.4087 7.77247 49.9177 5.02247 49.4147C2.92447 49.0307 0.945492 50.5467 0.865492 52.7517Z" fill="#8873EF"/>
<path fill-rule="evenodd" clip-rule="evenodd" d="M111.513 64.9967C79.8015 66.6677 48.1315 68.1267 16.3975 69.4677C13.9225 69.5727 -5.30346 69.3627 1.41754 76.0677C3.49354 78.1387 8.84252 76.7357 11.5275 76.6047C15.5615 76.4057 19.5985 76.2547 23.6335 76.0497C39.6295 75.2347 55.6685 75.0157 71.6525 74.1017C80.4495 73.5987 89.2255 72.8117 97.9765 71.7877C102.138 71.3007 107.305 71.3507 111.203 69.7197C113.209 68.8807 115.373 64.7917 111.513 64.9967Z" fill="#8873EF"/>
<path fill-rule="evenodd" clip-rule="evenodd" d="M93.2795 39.2317C90.8675 41.6337 92.1075 46.3717 92.2895 49.3407C92.5395 53.4257 92.8435 57.5137 93.3535 61.5767C93.6855 64.2157 93.5095 68.3227 94.9175 70.6027C96.5665 73.2727 100.196 72.9767 101.688 70.3977C103.007 68.1167 102.339 63.3177 102.305 60.7897C102.258 57.2937 102.04 53.7927 101.833 50.3037C101.659 47.3887 102.32 42.7157 100.716 40.2207C99.0855 37.6847 95.5395 36.9837 93.2795 39.2317Z" fill="#8873EF"/>
<path fill-rule="evenodd" clip-rule="evenodd" d="M20.7965 57.8707C20.5135 58.0887 20.5135 58.0887 20.7965 57.8707V57.8707ZM26.4286 57.1647C31.6846 58.2217 23.1865 64.3577 20.5005 60.1467C20.0815 59.4887 19.8625 58.6797 20.5365 58.1077C21.1505 57.5857 21.5365 58.5097 22.1175 58.2617C23.1175 57.8337 25.3616 57.1247 26.4286 57.1647ZM25.7035 52.1267C22.1155 52.4107 17.1825 52.6327 15.4065 56.2297C13.0205 61.0607 17.1006 65.7917 21.8216 66.5267C26.3646 67.2347 33.1465 64.7187 33.5105 59.4207C33.8035 55.1487 29.7405 51.7997 25.7035 52.1267Z" fill="#8873EF"/>
<path fill-rule="evenodd" clip-rule="evenodd" d="M55.6605 54.6817C51.9465 54.7417 44.6445 53.6437 41.4085 55.4537C38.2065 57.2457 39.6346 60.4357 42.5556 61.1987C44.4866 61.7027 47.6425 60.8897 49.6525 60.8077C52.2975 60.6997 54.9435 60.6767 57.5905 60.6397C62.0405 60.5797 66.4885 60.6307 70.9395 60.6307C75.4845 60.6307 80.1085 60.7547 84.6455 60.4207C90.3875 59.9977 90.2325 55.6987 84.6175 55.1617C75.0795 54.2487 65.2305 54.5317 55.6605 54.6817Z" fill="#8873EF"/>
<path fill-rule="evenodd" clip-rule="evenodd" d="M46.1726 102.832C46.1726 104.874 47.9846 102.832 47.9716 102.832C47.9846 102.832 46.1726 100.789 46.1726 102.832Z" fill="#8873EF"/>
<path fill-rule="evenodd" clip-rule="evenodd" d="M5.17645 86.3887C5.29345 92.3257 5.37048 98.2687 5.62348 104.202C5.70448 106.078 5.16643 109.741 7.44043 110.697C9.97143 111.762 10.7585 109.108 11.0505 107.31C11.9735 101.614 11.0684 95.1097 10.9794 89.3457C10.9494 87.4107 11.3685 84.7167 9.17047 83.7517C7.37747 82.9637 5.14045 84.4257 5.17645 86.3887Z" fill="#8873EF"/>
<path fill-rule="evenodd" clip-rule="evenodd" d="M102.815 86.4817C102.965 86.8357 102.965 86.8357 102.815 86.4817V86.4817ZM103.027 86.4217C103.149 86.4727 103.64 86.6787 103.027 86.4217V86.4217ZM55.0625 81.6227C45.9485 81.7657 36.8275 81.8737 27.7185 82.2637C23.8315 82.4307 19.8986 82.5657 16.0246 82.9317C13.2806 83.1917 6.46454 83.2997 4.68454 85.5417C1.01154 90.1707 8.79957 88.9077 10.4776 88.5317C13.5306 87.8477 16.6465 87.6287 19.7655 87.4637C26.5325 87.1067 33.3025 86.9167 40.0785 86.7797C58.4535 86.4097 76.8416 86.4667 95.2196 86.3837C96.9986 86.3757 100.215 85.6597 101.858 86.3797C103.505 87.1007 103.412 88.8747 103.583 90.9337C103.81 93.6737 102.003 98.8947 103.38 101.2C105.516 104.775 108.622 101.739 109.097 99.1327C109.753 95.5317 108.713 91.2077 107.695 87.7647C106.259 82.9087 104.265 82.7157 99.5675 82.3357C94.0785 81.8927 88.6105 81.6237 83.1035 81.5727C73.7585 81.4867 64.4075 81.4777 55.0625 81.6227Z" fill="#8873EF"/>
<path fill-rule="evenodd" clip-rule="evenodd" d="M91.1135 106.166C71.3435 108.462 51.0115 107.109 31.1365 107.19C26.3035 107.21 21.4665 107.249 16.6375 107.483C14.0875 107.606 8.04248 106.903 6.29548 108.871C2.61248 113.018 9.24647 113.621 11.6685 113.45C16.5655 113.101 21.4735 112.943 26.3835 112.905C43.6755 112.771 61.0665 113.578 78.3445 112.725C85.5835 112.367 92.6604 111.129 99.7654 109.745C101.339 109.439 112.114 107.39 105.97 104.935C102.339 103.484 94.9275 105.721 91.1135 106.166Z" fill="#8873EF"/>
<path fill-rule="evenodd" clip-rule="evenodd" d="M33.3916 98.5737C33.2536 98.7507 33.2536 98.7507 33.3916 98.5737V98.5737ZM33.2586 98.5427C33.0666 98.9837 33.2116 98.6697 33.2586 98.5427V98.5427ZM32.0116 96.9347C32.0406 96.9717 32.1586 97.1227 32.0116 96.9347V96.9347ZM31.9635 96.9227C32.4395 97.4907 32.7606 98.1247 32.9256 98.8237C28.8296 99.9337 27.2505 96.6197 31.9635 96.9227ZM31.7046 96.7677C31.7066 96.7687 32.2826 97.0107 31.7046 96.7677V96.7677ZM24.9765 91.8307C22.3255 95.1317 20.1366 98.9787 23.4416 102.75C26.3976 106.122 32.3425 106.557 36.0935 104.306C39.9565 101.987 39.6225 97.1037 36.9275 93.9167C35.1925 91.8647 33.7865 91.9217 31.2685 91.5867C29.5545 91.3587 26.4305 90.0257 24.9765 91.8307Z" fill="#8873EF"/>
<path fill-rule="evenodd" clip-rule="evenodd" d="M52.3795 97.9407C52.3795 102.337 71.3605 100.445 74.7375 100.44C77.5665 100.436 94.6705 101.996 93.4425 97.4717C92.4335 93.7547 75.5865 95.6027 71.9985 95.5967C68.8975 95.5927 52.3795 93.4637 52.3795 97.9407Z" fill="#8873EF"/>
</g>
</svg>
